# AST/ASF file generated using VICON BodyLanguage
# -----------------------------------------------
:version 1.10
:name VICON
:units
  mass 1.0
  length 0.45
  angle deg
:documentation
   .ast/.asf automatically generated from VICON data using
   VICON BodyBuilder and BodyLanguage model FoxedUp or BRILLIANT.MOD
:root
   order TX TY TZ RX RY RZ
   axis XYZ
   position 0 0 0  
   orientation 0 0 0 
:bonedata
  begin
     id 1 
     name lhipjoint
     direction 0.623415 -0.642378 0.445763 
     length 2.49859 
     axis 0 0 0  XYZ
  end
  begin
     id 2 
     name lfemur
     direction 0.34202 -0.939693 0  
     length 6.69689  
     axis 0 0 20  XYZ
    dof rx ry rz
    limits (-160.0 20.0)
           (-70.0 70.0)
           (-60.0 70.0)
  end
  begin
     id 3 
     name ltibia
     direction 0.34202 -0.939693 0   
     length 7.37574   
     axis 0 0 20   XYZ
    dof rx
    limits (-10.0 170.0)
  end
  begin
     id 4 
     name lfoot
     direction 0.084323 -0.231675 0.969132   
     length 2.09111   
     axis -90 7.62852e-016 20   XYZ
    dof rx rz
    limits (-45.0 90.0)
           (-70.0 20.0)
  end
  begin
     id 5 
     name ltoes
     direction 1.5357e-011 -4.21957e-011 1   
     length 1.04989   
     axis -90 7.62852e-016 20   XYZ
    dof rx
    limits (-90.0 20.0)
  end
  begin
     id 6 
     name rhipjoint
     direction -0.605402 -0.653903 0.45376   
     length 2.45455  
     axis 0 0 0  XYZ 
  end
  begin
     id 7 
     name rfemur
     direction -0.34202 -0.939693 0   
     length 6.64523   
     axis 0 0 -20   XYZ
    dof rx ry rz
    limits (-160.0 20.0)
           (-70.0 70.0)
           (-70.0 60.0)
  end
  begin
     id 8 
     name rtibia
     direction -0.34202 -0.939693 0   
     length 7.3339   
     axis 0 0 -20   XYZ
    dof rx
    limits (-10.0 170.0)
 end
 begin
     id 9 
     name rfoot
     direction -0.120854 -0.332043 0.93549   
     length 2.23135  
     axis -90 -7.62852e-016 -20   XYZ
    dof rx rz
    limits (-45.0 90.0)
           (-20.0 70.0)
  end
  begin
     id 10 
     name rtoes
     direction -1.53563e-011 -4.21914e-011 1   
     length 1.10614   
     axis -90 -7.62852e-016 -20   XYZ
    dof rx
    limits (-90.0 20.0)
  end
  begin
     id 11 
     name lowerback
     direction 0.0319682 0.998615 -0.0417941   
     length 2.02718   
     axis 0 0 0   XYZ
    dof rx ry rz
    limits (-20.0 45.0)
           (-30.0 30.0)
           (-30.0 30.0)
  end
  begin
     id 12 
     name upperback
     direction 7.63181e-005 0.995808 0.0914691   
     length 1.97539   
     axis 0 0 0   XYZ
    dof rx ry rz
    limits (-20.0 45.0)
           (-30.0 30.0)
           (-30.0 30.0)
  end
  begin
     id 13 
     name thorax
     direction -0.016423 0.993627 0.111514   
     length 2.00349   
     axis 0 0 0   XYZ
    dof rx ry rz
    limits (-20.0 45.0)
           (-30.0 30.0)
           (-30.0 30.0)
  end
  begin
     id 14 
     name lowerneck
     direction -0.174763 0.981668 -0.0760716   
     length 1.71436   
     axis 0 0 0   XYZ
    dof rx ry rz
    limits (-20.0 45.0)
           (-30.0 30.0)
           (-30.0 30.0)
  end
  begin
     id 15 
     name upperneck
     direction 0.345458 0.934587 -0.0848868   
     length 1.72805   
     axis 0 0 0   XYZ
    dof rx ry rz
    limits (-20.0 45.0)
           (-30.0 30.0)
           (-30.0 30.0)
  end
  begin
     id 16
     name head
     direction 0.13001 0.989848 -0.0574291  
     length 1.767  
     axis 0 0 0   XYZ
    dof rx ry rz
    limits (-20.0 45.0)
           (-30.0 30.0)
           (-30.0 30.0)
  end
  begin
     id 17 
     name lclavicle
     direction 0.952951 0.290122 0.0878234  
     length 3.54654  
     axis 0 0 0   XYZ
    dof ry rz
    limits (-20.0 10.0)
           (0.0 20.0)
  end
  begin
     id 18 
     name lhumerus
     direction 1 -4.48957e-011 -4.56525e-028   
     length 5.19807   
     axis 180 -30 -90   XYZ
    dof rx ry rz
    limits (-60.0 90.0)
           (-90.0 90.0)
           (-90.0 90.0)
  end
  begin
     id 19
     name lradius
     direction 1 -4.48979e-011 -2.0317e-027   
     length 3.0937   
     axis 180 -30 -90   XYZ
    dof rx
    limits (-10.0 170.0)
  end
  begin
     id 20
     name lwrist
     direction 1 -4.48953e-011 -3.05809e-027   
     length 1.54685   
     axis 8.48514e-016 90 90   XYZ
    dof ry
    limits (-180.0 0.0)
 end
  begin
     id 21 
     name lhand
     direction 1 -4.48952e-011 -6.11639e-027   
     length 0.672632   
     axis 3.9013e-015 90 90   XYZ
    dof rx rz
    limits (-90.0 90.0)
           (-45.0 45.0)
  end
  begin
     id 22 
     name lfingers
     direction 1 -4.48925e-011 -1.22426e-026   
     length 0.542293   
     axis 7.80276e-015 90 90   XYZ
    dof rx
    limits (0.0 90.0)
  end
  begin
     id 23
     name lthumb
     direction 0.707107 -6.3486e-011 0.707107   
     length 0.778628   
     axis -90 45 5.37419e-014   XYZ
    dof rx rz
    limits (-45.0 45.0)
           (-45.0 45.0)
  end
  begin
     id 24 
     name rclavicle
     direction -0.960732 0.273675 -0.0457849   
     length 3.52079  
     axis 0 0 0   XYZ 
    dof ry rz
    limits (-10.0 20.0)
           (-20.0 0.0)
  end
  begin
     id 25 
     name rhumerus
     direction -1 -4.48976e-011 -1.63613e-027  
     length 5.45222   
     axis 180 30 90   XYZ
    dof rx ry rz
    limits (-90.0 60.0)
           (-90.0 90.0)
           (-90.0 90.0)
  end
  begin
     id 26 
     name rradius
     direction -1 -4.48957e-011 -7.00033e-028   
     length 3.01284   
     axis 180 30 90   XYZ
    dof rx
    limits (-10.0 170.0)
  end
  begin
     id 27 
     name rwrist
     direction -1 -4.48983e-011 -3.05543e-027   
     length 1.50642   
     axis 8.48514e-016 -90 -90   XYZ
    dof ry
    limits (-180.0 0.0)
  end
  begin
     id 28
     name rhand
     direction -1 -4.48984e-011 -6.11072e-027   
     length 0.622296   
     axis 3.9013e-015 -90 -90   XYZ
    dof rx rz
    limits (-90.0 90.0)
           (-45.0 45.0)
  end
  begin
     id 29
     name rfingers
     direction -1 -4.48865e-011 -1.22637e-026   
     length 0.501711   
     axis 7.80276e-015 -90 -90   XYZ
    dof rx
    limits (0.0 90.0)
  end
  begin
     id 30
     name rthumb
     direction -0.707107 -6.34932e-011 0.707107   
     length 0.72036   
     axis -90 -45 -5.37419e-014   XYZ
    dof rx rz
    limits (-45.0 45.0)
           (-45.0 45.0)
  end
:hierarchy
  begin
    root lhipjoint rhipjoint lowerback
    lhipjoint lfemur
    lfemur ltibia
    ltibia lfoot
    lfoot ltoes
    rhipjoint rfemur
    rfemur rtibia
    rtibia rfoot
    rfoot rtoes
    lowerback upperback
    upperback thorax
    thorax lowerneck lclavicle rclavicle
    lowerneck upperneck
    upperneck head
    lclavicle lhumerus
    lhumerus lradius
    lradius lwrist
    lwrist lhand lthumb
    lhand lfingers
    rclavicle rhumerus
    rhumerus rradius
    rradius rwrist
    rwrist rhand rthumb
    rhand rfingers
  end

#!OML:ASF H:\Not Pregnant\Project 1\Capture day 1\Session 1\non-pregnant.ASF
:FULLY-SPECIFIED
:DEGREES
334
root -6.6646 15.8907 14.6118 -167.933 8.37703 -173.283
lowerback -9.30824 4.49136 3.17334
upperback -1.20707 5.75362 -0.241857
thorax 4.27923 2.94097 -1.26895
lowerneck 17.9632 -5.20076 -25.8812
upperneck 9.34711 -26.3862 40.0543
head 9.81905 -17.4496 19.1165
rclavicle -2.51463e-014 -1.90833e-014
rhumerus -29.054 1.12278 -90.1526
rradius 19.2953
rwrist 32.4896
rhand -13.1316 -6.7738
rfingers 7.12502
rthumb 12.9663 -36.3509
lclavicle -2.51463e-014 -1.90833e-014
lhumerus -32.2924 -19.0514 94.3805
lradius 34.9587
lwrist 38.7729
lhand -17.5445 -14.3371
lfingers 7.12502
lthumb 8.70988 15.4632
rfemur 10.1249 7.02701 31.9737
rtibia 3.67922
rfoot -12.769 19.9573
rtoes -13.4725
lfemur -46.9057 -0.138243 -12.6288
ltibia 30.3037
lfoot -1.04213 -10.1102
ltoes -28.6312
335
root -6.65724 15.9088 14.4682 -167.834 8.51666 -173.557
lowerback -9.42276 4.63897 2.77024
upperback -1.34406 6.00783 -0.647179
thorax 4.21567 3.06272 -1.42688
lowerneck 18.0581 -5.28781 -25.843
upperneck 9.67564 -26.57 39.8219
head 9.93991 -17.5262 18.9485
rclavicle -4.67144e-014 -3.97569e-015
rhumerus -29.2044 -0.744694 -89.7426
rradius 18.7503
rwrist 34.8597
rhand -13.0308 -6.54916
rfingers 7.12502
rthumb 13.0635 -36.1201
lclavicle -4.67144e-014 -3.97569e-015
lhumerus -32.1418 -18.692 93.6567
lradius 34.6266
lwrist 38.5612
lhand -17.0149 -13.7324
lfingers 7.12502
lthumb 9.22094 16.046
rfemur 10.2861 7.11883 31.605
rtibia 4.00719
rfoot -11.9701 20.2087
rtoes -14.0353
lfemur -46.7627 0.26579 -13.195
ltibia 30.8181
lfoot -1.22309 -10.4401
ltoes -28.0804
336
root -6.64863 15.9289 14.327 -167.763 8.60731 -173.883
lowerback -9.49498 4.76369 2.30283
upperback -1.47761 6.24369 -1.07068
thorax 4.12673 3.17644 -1.57389
lowerneck 18.1708 -5.36803 -25.7889
upperneck 9.97236 -26.7475 39.6236
head 10.0502 -17.6063 18.802
rclavicle 3.27995e-014 1.35174e-014
rhumerus -29.4358 -2.37832 -89.4342
rradius 18.3872
rwrist 36.7554
rhand -12.8454 -6.18292
rfingers 7.12502
rthumb 13.2422 -35.7423
lclavicle 3.27995e-014 1.35174e-014
lhumerus -31.9955 -18.3986 92.9358
lradius 34.2689
lwrist 38.5075
lhand -16.5238 -13.3407
lfingers 7.12502
lthumb 9.69481 16.4162
rfemur 9.86546 7.14781 31.1886
rtibia 5.42828
rfoot -11.5322 20.3971
rtoes -14.5211
lfemur -46.5748 0.609017 -13.7937
ltibia 31.2671
lfoot -1.58989 -10.9067
ltoes -27.2657
337
root -6.63896 15.9507 14.1881 -167.713 8.64618 -174.244
lowerback -9.53721 4.8673 1.79457
upperback -1.59887 6.46034 -1.50809
thorax 4.03011 3.28249 -1.71739
lowerneck 18.3056 -5.44822 -25.7192
upperneck 10.2239 -26.9168 39.4598
head 10.1429 -17.6869 18.6754
rclavicle -5.66536e-015 1.19271e-014
rhumerus -29.7195 -3.68799 -89.2693
rradius 18.2067
rwrist 38.0635
rhand -12.5857 -5.71168
rfingers 7.12502
rthumb 13.4925 -35.2546
lclavicle -5.66536e-015 1.19271e-014
lhumerus -31.8238 -18.1317 92.1944
lradius 33.8784
lwrist 38.5139
lhand -16.028 -13.0999
lfingers 7.12502
lthumb 10.1732 16.6341
rfemur 9.16091 7.11497 30.7425
rtibia 7.36357
rfoot -11.1496 20.5706
rtoes -14.9387
lfemur -46.3382 0.832432 -14.3736
ltibia 31.6446
lfoot -2.04986 -11.3931
ltoes -26.274
338
root -6.62854 15.9733 14.0514 -167.687 8.64302 -174.622
lowerback -9.55015 4.95339 1.26828
upperback -1.71028 6.6598 -1.94979
thorax 3.92497 3.38234 -1.86006
lowerneck 18.4765 -5.52507 -25.6483
upperneck 10.4403 -27.0751 39.3159
head 10.2157 -17.7664 18.566
rclavicle 3.49861e-014 -4.77083e-014
rhumerus -30.044 -4.64138 -89.2618
rradius 18.1937
rwrist 38.7544
rhand -12.2717 -5.15315
rfingers 7.12502
rthumb 13.7951 -34.6757
lclavicle 3.49861e-014 -4.77083e-014
lhumerus -31.6381 -17.8917 91.4443
lradius 33.4594
lwrist 38.5457
lhand -15.5659 -12.9861
lfingers 7.12502
lthumb 10.6189 16.7256
rfemur 8.32958 7.03283 30.2868
rtibia 9.52437
rfoot -10.6753 20.7429
rtoes -15.3366
lfemur -46.0421 0.899504 -14.8878
ltibia 31.9503
lfoot -2.5579 -11.7938
ltoes -25.4072
339
root -6.61766 15.9959 13.9169 -167.68 8.60381 -174.987
lowerback -9.53119 5.02505 0.754738
upperback -1.80564 6.84148 -2.3843
thorax 3.81842 3.47578 -2.00719
lowerneck 18.6707 -5.61055 -25.574
upperneck 10.6219 -27.2164 39.1739
head 10.2621 -17.8344 18.4593
rclavicle 8.90555e-014 7.15625e-015
rhumerus -30.3758 -5.19289 -89.4291
rradius 18.3337
rwrist 38.8107
rhand -11.8107 -4.56271
rfingers 7.12502
rthumb 14.2395 -34.0546
lclavicle 8.90555e-014 7.15625e-015
lhumerus -31.4191 -17.6695 90.6845
lradius 33.031
lwrist 38.5334
lhand -15.179 -12.841
lfingers 7.12502
lthumb 10.9921 16.8512
rfemur 7.43527 6.91263 29.8481
rtibia 11.7956
rfoot -10.0379 20.9052
rtoes -15.7036
lfemur -45.6935 0.826262 -15.3148
ltibia 32.1929
lfoot -3.07512 -12.0821
ltoes -24.6877
340
root -6.60721 16.0183 13.7841 -167.689 8.54621 -175.315
lowerback -9.49227 5.08977 0.291146
upperback -1.88027 7.00998 -2.80185
thorax 3.72544 3.56493 -2.16725
lowerneck 18.8705 -5.70532 -25.5127
upperneck 10.7818 -27.3397 39.024
head 10.2906 -17.8881 18.3524
rclavicle 5.10877e-014 -4.6118e-014
rhumerus -30.6921 -5.36742 -89.7539
rradius 18.607
rwrist 38.3235
rhand -11.1883 -3.97604
rfingers 7.12502
rthumb 14.839 -33.4247
lclavicle 5.10877e-014 -4.6118e-014
lhumerus -31.1735 -17.4783 89.9361
lradius 32.6258
lwrist 38.4429
lhand -14.9667 -12.5632
lfingers 7.12502
lthumb 11.1968 17.118
rfemur 6.50455 6.66451 29.4273
rtibia 14.1149
rfoot -9.20142 21.1625
rtoes -16.0512
lfemur -45.3 0.651556 -15.6505
ltibia 32.3874
lfoot -3.59373 -12.2621
ltoes -24.1617
341
root -6.59749 16.04 13.6531 -167.717 8.48718 -175.585
lowerback -9.42612 5.15273 -0.0994203
upperback -1.93039 7.16789 -3.19321
thorax 3.64791 3.6504 -2.34356
lowerneck 19.053 -5.81222 -25.4597
upperneck 10.9366 -27.4345 38.8466
head 10.2999 -17.916 18.2325
rclavicle 8.18993e-014 -2.38542e-014
rhumerus -30.9691 -5.18661 -90.2201
rradius 18.9821
rwrist 37.3798
rhand -10.4004 -3.41633
rfingers 7.12502
rthumb 15.598 -32.8074
lclavicle 8.18993e-014 -2.38542e-014
lhumerus -30.9038 -17.3234 89.2063
lradius 32.2218
lwrist 38.42
lhand -14.861 -12.3484
lfingers 7.12502
lthumb 11.2988 17.3273
rfemur 5.56442 6.31757 29.0426
rtibia 16.4462
rfoot -8.11327 21.4863
rtoes -16.311
lfemur -44.8645 0.427861 -15.898
ltibia 32.5525
lfoot -4.06655 -12.3597
ltoes -23.6595
342
root -6.58909 16.061 13.5236 -167.771 8.44227 -175.799
lowerback -9.33344 5.21591 -0.411673
upperback -1.95313 7.31603 -3.55434
thorax 3.58968 3.73188 -2.53454
lowerneck 19.1913 -5.92304 -25.4332
upperneck 11.1019 -27.5016 38.6461
head 10.3073 -17.9199 18.1067
rclavicle -3.33958e-014 2.8625e-014
rhumerus -31.1992 -4.67728 -90.8024
rradius 19.4417
rwrist 36.096
rhand -9.45988 -2.90332
rfingers 7.12502
rthumb 16.5037 -32.2214
lclavicle -3.33958e-014 2.8625e-014
lhumerus -30.6238 -17.1939 88.5066
lradius 31.8376
lwrist 38.4361
lhand -14.9062 -12.1988
lfingers 7.12502
lthumb 11.2552 17.4793
rfemur 4.62662 5.88079 28.6834
rtibia 18.7705
rfoot -6.73066 21.8631
rtoes -16.3864
lfemur -44.3884 0.199767 -16.0855
ltibia 32.7024
lfoot -4.51291 -12.3946
ltoes -23.147
343
root -6.58262 16.0818 13.3956 -167.841 8.43899 -175.953
lowerback -9.21995 5.28854 -0.636777
upperback -1.95374 7.46536 -3.88656
thorax 3.55053 3.81446 -2.74461
lowerneck 19.2749 -6.03382 -25.4343
upperneck 11.2861 -27.5388 38.421
head 10.3168 -17.8988 17.9751
rclavicle 5.84427e-014 -5.725e-014
rhumerus -31.3802 -3.88341 -91.4732
rradius 19.9654
rwrist 34.5812
rhand -8.41137 -2.44438
rfingers 7.12502
rthumb 17.513 -31.6755
lclavicle 5.84427e-014 -5.725e-014
lhumerus -30.3402 -17.0589 87.8283
lradius 31.4769
lwrist 38.464
lhand -15.0588 -12.0818
lfingers 7.12502
lthumb 11.108 17.6042
rfemur 3.68387 5.38279 28.3394
rtibia 21.0783
rfoot -5.02427 22.2611
rtoes -16.1927
lfemur -43.8801 0.0215792 -16.2353
ltibia 32.8452
lfoot -4.94372 -12.3879
ltoes -22.596
344
root -6.57807 16.1024 13.2694 -167.921 8.4962 -176.06
lowerback -9.08189 5.37381 -0.787598
upperback -1.94206 7.62123 -4.19269
thorax 3.51757 3.90063 -2.96989
lowerneck 19.3045 -6.14392 -25.4626
upperneck 11.4909 -27.5454 38.1671
head 10.3275 -17.8523 17.8352
rclavicle -7.99114e-014 1.11319e-014
rhumerus -31.521 -2.82736 -92.213
rradius 20.5379
rwrist 32.9181
rhand -7.32591 -2.04111
rfingers 7.12502
rthumb 18.5573 -31.1759
lclavicle -7.99114e-014 1.11319e-014
lhumerus -30.0575 -16.9025 87.1668
lradius 31.1412
lwrist 38.4774
lhand -15.2986 -12.0013
lfingers 7.12502
lthumb 10.8768 17.697
rfemur 2.72329 4.86382 27.9985
rtibia 23.3673
rfoot -3.0304 22.6076
rtoes -15.7695
lfemur -43.3477 -0.0622073 -16.3739
ltibia 32.9794
lfoot -5.37547 -12.3737
ltoes -22.0055
345
root -6.57587 16.1236 13.1449 -168.006 8.63315 -176.128
lowerback -8.92521 5.47549 -0.870318
upperback -1.92213 7.78966 -4.4776
thorax 3.49045 3.9933 -3.21089
lowerneck 19.2752 -6.25216 -25.5176
upperneck 11.7115 -27.5191 37.889
head 10.3389 -17.7796 17.6896
rclavicle -5.86415e-014 -1.11319e-014
rhumerus -31.6251 -1.51362 -93.0109
rradius 21.1506
rwrist 31.1555
rhand -6.26208 -1.68219
rfingers 7.12502
rthumb 19.5804 -30.7162
lclavicle -5.86415e-014 -1.11319e-014
lhumerus -29.7864 -16.7115 86.5185
lradius 30.852
lwrist 38.445
lhand -15.5728 -11.9525
lfingers 7.12502
lthumb 10.6123 17.7596
rfemur 1.7334 4.36167 27.6439
rtibia 25.6347
rfoot -0.823109 22.8427
rtoes -15.2479
lfemur -42.7914 -0.0163726 -16.5249
ltibia 33.0985
lfoot -5.82193 -12.3731
ltoes -21.3675
346
root -6.57612 16.1456 13.0227 -168.075 8.86468 -176.168
lowerback -8.76126 5.59841 -0.892154
upperback -1.90276 7.97905 -4.74939
thorax 3.46754 4.09688 -3.47035
lowerneck 19.1826 -6.36416 -25.5934
upperneck 11.9482 -27.4718 37.5873
head 10.357 -17.6866 17.5336
rclavicle 2.46493e-014 5.08889e-014
rhumerus -31.7056 0.0164741 -93.847
rradius 21.814
rwrist 29.3567
rhand -5.28338 -1.36555
rfingers 7.12502
rthumb 20.5211 -30.301
lclavicle 2.46493e-014 5.08889e-014
lhumerus -29.5418 -16.5359 85.9031
lradius 30.6243
lwrist 38.4027
lhand -15.9337 -11.9347
lfingers 7.12502
lthumb 10.2641 17.7948
rfemur 0.689013 3.92365 27.267
rtibia 27.8719
rfoot 1.43725 22.9347
rtoes -14.968
lfemur -42.2291 0.176998 -16.6974
ltibia 33.1943
lfoot -6.29639 -12.3917
ltoes -20.7659
